<svg xmlns="http://www.w3.org/2000/svg" viewBox="0 0 720 280" role="img" aria-label="Tableau to QuickSight migration assistant architecture">
  <rect width="720" height="280" fill="#0a1628" rx="12"/>
  <text x="360" y="32" text-anchor="middle" fill="#38bdf8" font-family="system-ui,sans-serif" font-size="14" font-weight="600">Tableau ’ QuickSight Migration Assistant</text>
  <rect x="32" y="56" width="100" height="48" rx="8" fill="#0f2744" stroke="#22d3ee"/>
  <text x="82" y="86" text-anchor="middle" fill="#e2e8f0" font-size="10" font-family="system-ui">Metadata</text>
  <path d="M132 80 H156" stroke="#64748b" stroke-width="2"/>
  <rect x="156" y="56" width="100" height="48" rx="8" fill="#0f2744" stroke="#22d3ee"/>
  <text x="206" y="86" text-anchor="middle" fill="#e2e8f0" font-size="10" font-family="system-ui">Mappers</text>
  <path d="M256 80 H280" stroke="#64748b" stroke-width="2"/>
  <rect x="280" y="56" width="100" height="48" rx="8" fill="#1e3a5f" stroke="#38bdf8"/>
  <text x="330" y="78" text-anchor="middle" fill="#bae6fd" font-size="10" font-family="system-ui">GenAI</text>
  <text x="330" y="94" text-anchor="middle" fill="#64748b" font-size="8" font-family="system-ui">mock / Bedrock</text>
  <path d="M380 80 H404" stroke="#64748b" stroke-width="2"/>
  <rect x="404" y="56" width="100" height="48" rx="8" fill="#0f2744" stroke="#fbbf24"/>
  <text x="454" y="86" text-anchor="middle" fill="#fde68a" font-size="10" font-family="system-ui">Package</text>
  <path d="M504 80 H528" stroke="#64748b" stroke-width="2"/>
  <rect x="528" y="56" width="100" height="48" rx="8" fill="#14532d" stroke="#4ade80"/>
  <text x="578" y="86" text-anchor="middle" fill="#86efac" font-size="10" font-family="system-ui">Validator</text>
  <path d="M628 80 H652" stroke="#64748b" stroke-width="2"/>
  <rect x="652" y="56" width="56" height="48" rx="8" fill="#0f2744" stroke="#34d399"/>
  <text x="680" y="78" text-anchor="middle" fill="#6ee7b7" font-size="9" font-family="system-ui">PASS</text>
  <text x="680" y="94" text-anchor="middle" fill="#94a3b8" font-size="8" font-family="system-ui">gate</text>
  <rect x="80" y="132" width="560" height="72" rx="10" fill="#0f2744" stroke="#334155"/>
  <text x="360" y="158" text-anchor="middle" fill="#94a3b8" font-size="11" font-family="system-ui">5 Validation Dimensions</text>
  <text x="140" y="184" text-anchor="middle" fill="#cbd5e1" font-size="9" font-family="system-ui">Structural</text>
  <text x="240" y="184" text-anchor="middle" fill="#cbd5e1" font-size="9" font-family="system-ui">Datasource</text>
  <text x="340" y="184" text-anchor="middle" fill="#cbd5e1" font-size="9" font-family="system-ui">Calculation</text>
  <text x="440" y="184" text-anchor="middle" fill="#cbd5e1" font-size="9" font-family="system-ui">Parity 1%</text>
  <text x="540" y="184" text-anchor="middle" fill="#cbd5e1" font-size="9" font-family="system-ui">Visual</text>
  <rect x="200" y="220" width="320" height="40" rx="8" fill="#0f2744" stroke="#38bdf8"/>
  <text x="360" y="246" text-anchor="middle" fill="#bae6fd" font-size="11" font-family="system-ui">deploy.py  dry-run API plan (default)</text>
  <text x="360" y="268" text-anchor="middle" fill="#64748b" font-size="10" font-family="system-ui">Amazon Q topics " QuickSight Create* sequence</text>
</svg>
