<svg xmlns="http://www.w3.org/2000/svg" viewBox="0 0 720 280" role="img" aria-label="Tableau workbook knowledge platform architecture">
  <rect width="720" height="280" fill="#0a1628" rx="12"/>
  <text x="360" y="32" text-anchor="middle" fill="#34d399" font-family="system-ui,sans-serif" font-size="14" font-weight="600">Tableau Workbook Knowledge Platform</text>
  <rect x="24" y="56" width="96" height="48" rx="8" fill="#0f2744" stroke="#22d3ee"/>
  <text x="72" y="78" text-anchor="middle" fill="#e2e8f0" font-size="10" font-family="system-ui">TWB</text>
  <text x="72" y="94" text-anchor="middle" fill="#94a3b8" font-size="9" font-family="system-ui">Parse</text>
  <path d="M120 80 H144" stroke="#64748b" stroke-width="2"/>
  <rect x="144" y="56" width="96" height="48" rx="8" fill="#0f2744" stroke="#22d3ee"/>
  <text x="192" y="86" text-anchor="middle" fill="#e2e8f0" font-size="10" font-family="system-ui">metadata.json</text>
  <path d="M240 80 H264" stroke="#64748b" stroke-width="2"/>
  <rect x="264" y="48" width="120" height="64" rx="8" fill="#064e3b" stroke="#34d399"/>
  <text x="324" y="76" text-anchor="middle" fill="#6ee7b7" font-size="10" font-family="system-ui">Bedrock</text>
  <text x="324" y="92" text-anchor="middle" fill="#a7f3d0" font-size="9" font-family="system-ui">Draft + Refine</text>
  <path d="M384 80 H408" stroke="#64748b" stroke-width="2"/>
  <rect x="408" y="56" width="96" height="48" rx="8" fill="#0f2744" stroke="#fbbf24"/>
  <text x="456" y="86" text-anchor="middle" fill="#fde68a" font-size="10" font-family="system-ui">Validator</text>
  <path d="M504 80 H528" stroke="#64748b" stroke-width="2"/>
  <rect x="528" y="56" width="80" height="48" rx="8" fill="#0f2744" stroke="#38bdf8"/>
  <text x="568" y="86" text-anchor="middle" fill="#e2e8f0" font-size="10" font-family="system-ui">S3 Docs</text>
  <path d="M608 80 H632" stroke="#64748b" stroke-width="2"/>
  <rect x="632" y="56" width="64" height="48" rx="8" fill="#0f2744" stroke="#a78bfa"/>
  <text x="664" y="86" text-anchor="middle" fill="#e2e8f0" font-size="9" font-family="system-ui">MCP</text>
  <rect x="120" y="140" width="480" height="88" rx="10" fill="#0f2744" stroke="#334155"/>
  <text x="360" y="168" text-anchor="middle" fill="#67e8f9" font-size="11" font-family="system-ui">AWS Deploy Path (CDK PortfolioDemosStack)</text>
  <rect x="160" y="184" width="88" height="32" rx="6" fill="#1e3a5f" stroke="#38bdf8"/>
  <text x="204" y="204" text-anchor="middle" fill="#bae6fd" font-size="9" font-family="system-ui">API GW</text>
  <rect x="280" y="184" width="88" height="32" rx="6" fill="#1e3a5f" stroke="#38bdf8"/>
  <text x="324" y="204" text-anchor="middle" fill="#bae6fd" font-size="9" font-family="system-ui">Lambda</text>
  <rect x="400" y="184" width="88" height="32" rx="6" fill="#064e3b" stroke="#34d399"/>
  <text x="444" y="204" text-anchor="middle" fill="#6ee7b7" font-size="9" font-family="system-ui">Bedrock</text>
  <rect x="520" y="184" width="88" height="32" rx="6" fill="#312e81" stroke="#a78bfa"/>
  <text x="564" y="204" text-anchor="middle" fill="#c4b5fd" font-size="9" font-family="system-ui">Secrets Mgr</text>
  <text x="360" y="256" text-anchor="middle" fill="#64748b" font-size="10" font-family="system-ui">Local mock path: no AWS credentials " 4/4 validation passed</text>
</svg>
